<svg id="revature-logo_OverlayOnly" xmlns="http://www.w3.org/2000/svg" width="354.188" height="111.25" viewBox="0 0 354.188 111.25">
  <path id="Path_1" data-name="Path 1" d="M396.67,11.849a3.69,3.69,0,0,1,3.882-2.756c.934,1.23,2.457,2.559,1.671,4.232-3.1,9.892-6.389,19.734-9.485,29.675-.393,1.181-.786,2.559-1.966,3.2-1.278.344-3,.246-3.735-1.083-.786-1.132-.2-2.559.1-3.74,3.194-9.842,6.34-19.685,9.534-29.527m-27.079-.443c1.13-.246,2.408-.984,3.489-.2,1.523.64,1.769,2.51,1.376,3.937-1.671,8.661-3.145,17.323-4.865,25.984-.295,2.116-3.342,2.9-4.767,1.378-1.229-1.083-.786-2.854-.541-4.232,1.179-6.1,2.31-12.2,3.44-18.356a46.214,46.214,0,0,1,1.867-8.514m56.467,1.132c1.425-.443,3.391-.492,4.128,1.033.835,1.23.1,2.559-.393,3.74-5.16,11.073-10.173,22.145-15.333,33.218-.737,2.362-4.669,2.51-5.455.148a4.585,4.585,0,0,1,.541-3.3q7.593-16.388,15.087-32.775a7.73,7.73,0,0,1,1.425-2.067m-82.711,3.4a4.625,4.625,0,0,1,3.342.344c1.278,1.476.786,3.543.786,5.315-.491,6.348-.541,12.7-1.032,19.045-.147,2.805-4.767,3-5.5.443-.393-1.722.049-3.543.049-5.266.246-5.512.541-11.023.786-16.535.049-1.181.246-2.9,1.573-3.346m112.1,2.854c1.032-.049,2.359-.049,2.9,1.083,1.032,1.476,0,3.248-.786,4.577-7.077,11.663-14.055,23.376-21.083,35.039-.786,1.378-2.506,2.707-4.079,1.722-1.769-.689-2.064-3.051-1.032-4.478,7.175-11.959,14.4-23.868,21.525-35.826.59-.984,1.229-2.215,2.555-2.116m-139.129,8.12a2.845,2.845,0,0,1,3.981-3.051c1.523.492,1.769,2.264,1.868,3.642.393,4.774,1.032,9.5,1.376,14.271a4.994,4.994,0,0,1-.835,3.2c-.639.148-1.327.3-1.966.492-.639-.148-1.278-.344-1.917-.492-1.081-1.87-1.13-4.035-1.327-6.152-.344-3.937-.835-7.923-1.179-11.909M480.56,30.993c.885-1.132,2.015-2.461,3.637-2.116,1.278-.049,1.867,1.23,2.408,2.215v1.28c-1.867,3-4.177,5.61-6.241,8.464q-11.795,15.354-23.59,30.757a3.419,3.419,0,0,1-4.128,1.181,3.053,3.053,0,0,1-.541-4.626c9.485-12.4,19.019-24.754,28.455-37.155M292.286,38.768a2.936,2.936,0,0,1,2.408-3.789,14.663,14.663,0,0,1,2.506.738c1.376,3.937,2.6,7.923,3.637,12.008.491,1.722-1.179,2.756-2.457,3.445-.885-.3-1.72-.64-2.6-.935-1.327-3.839-2.408-7.677-3.489-11.466M271.989,49.2c2.212-.787,3.588,1.476,4.57,3.051.885,1.624,2.556,3.248,1.966,5.216a2.872,2.872,0,0,1-4.914.787,48.591,48.591,0,0,1-3.244-5.02,2.834,2.834,0,0,1,1.622-4.035M253.118,67.459a3,3,0,0,1,4.079,3.3c-.491,2.461-4.128,3-5.455.984a2.977,2.977,0,0,1,1.376-4.281" transform="translate(-132.418 -9.087)" fill="#ff6f12"/>
  <path id="Path_2" data-name="Path 2" d="M9.4,167.222H29.451c3.637.049,7.667.3,10.664,2.707,3.342,3.1,3.391,8.661,1.229,12.4-1.622,2.9-4.964,3.937-8.011,4.478,3.244,4.527,6.831,8.858,9.927,13.484-2.408.049-4.865.049-7.273.049-2.556-3.445-5.111-6.84-7.617-10.335a10.986,10.986,0,0,0-2.457-2.756c-3.44-.64-6.979-.2-10.419-.148-.049,4.429,0,8.858-.049,13.238H9.4v-33.12m6.143,5.069c-.295,3.3-.049,6.594-.1,9.892,5.258,0,10.517.2,15.726-.148,1.868-.1,4.03-.64,4.914-2.461,1.081-2.264.639-5.758-1.966-6.693-3.391-1.329-7.077-.738-10.615-.837-2.6.148-5.357-.3-7.961.246m36.171-5.02c8.5-.148,17.053,0,25.555-.1,1.081.049,2.359-.1,3.244.689,1.573,1.279.688,4.429-1.474,4.281-7.077.148-14.154,0-21.231.049-.147,2.854-.147,5.709-.1,8.563H74.861c.835,1.132,1.769,2.707.688,4.035-.639,1.033-1.966.886-3.047.935-4.964,0-9.878-.049-14.842,0-.049,3.15-.049,6.3.049,9.4,6.88,0,13.761-.049,20.641,0,1.523-.1,3.538.787,3.391,2.608.2,1.821-1.769,2.854-3.342,2.657H51.665c.049-11.073.1-22.1.049-33.12m88.559-.049c2.408,0,4.767,0,7.175-.049,5.455,10.974,10.861,22.047,16.021,33.12-2.162,0-4.276,0-6.438-.049-1.032-2.608-2.212-5.118-3.391-7.628H134.031c-1.229,2.559-2.408,5.167-3.588,7.726h-6.438c5.406-11.073,10.861-22.1,16.267-33.12M136.587,187.5c4.865,0,9.682.049,14.547-.049-2.162-5.266-4.718-10.433-7.224-15.551-2.6,5.118-4.964,10.335-7.323,15.6m26.637-15.551c-2.064-1.279-1.032-4.823,1.425-4.724,9.829-.1,19.707.049,29.585-.049,1.081.049,2.31-.1,3.194.64,1.573,1.23.737,4.38-1.425,4.281-4.226.2-8.5-.2-12.778.246v28c-2.015,0-4.03,0-6.045-.049,0-9.35.049-18.7,0-28.051-4.669-.2-9.338.246-13.957-.3m87.183-4.724h19.953a22.9,22.9,0,0,1,8.551,1.329,7.477,7.477,0,0,1,4.521,5.512c.639,3.346.246,7.185-2.261,9.695-1.769,1.919-4.423,2.461-6.831,3,3.145,4.626,6.733,8.907,9.976,13.484-2.506.049-4.964.049-7.47,0-2.752-3.839-5.6-7.579-8.355-11.417-.639-.689-1.179-1.821-2.261-1.87a73.534,73.534,0,0,0-9.878.1v13.189c-1.966,0-3.932.049-5.9.049-.2-10.974-.049-22.047-.049-33.07m6,14.96c5.8-.049,11.647.344,17.446-.394,3.735-.394,4.964-5.463,2.654-8.022-1.671-1.476-4.03-1.673-6.143-1.673-4.62,0-9.239.049-13.908,0-.1,3.346-.1,6.693-.049,10.088m36.318-15.01c7.667.049,15.382.049,23.049,0a27.382,27.382,0,0,1,4.915.2c1.13.344,1.425,1.624,2.015,2.51-.737.984-1.278,2.461-2.752,2.215-7.028.148-14.055-.049-21.083.2-.049,2.805-.049,5.659.1,8.464,5.209-.1,10.419,0,15.677-.049.835,1.132,1.769,2.707.688,4.035-.639,1.033-1.966.886-3,.935-4.472,0-8.9,0-13.367-.049-.147,3.15-.147,6.348-.049,9.5q10.542-.148,21.083,0a2.587,2.587,0,0,1,2.85,3.15c-.1,1.722-2.064,2.165-3.489,2.067-8.9-.049-17.79,0-26.686-.049,0-11.023-.148-22.047.049-33.12m-203.8,2.707a2.991,2.991,0,0,1,4.276-2.411,6.357,6.357,0,0,1,1.868,2.51c3.784,8.071,7.519,16.191,11.451,24.212,4.03-8.317,8.011-16.732,12.04-25.049a2.976,2.976,0,0,1,4.914-1.033c1.278,1.181.688,2.953.049,4.281-4.521,9.35-9.141,18.6-13.662,27.952h-6.536Q97.2,187.719,91.128,175.1c-.885-1.722-1.966-3.346-2.212-5.216m117.26-2.018a3.011,3.011,0,0,1,4.914,2.559c.147,5.758-.246,11.516.147,17.224a8.479,8.479,0,0,0,5.5,7.529,17.92,17.92,0,0,0,13.171-.64c2.752-1.378,4.079-4.478,4.177-7.431.147-5.315-.049-10.679.049-15.994.049-1.28.147-2.9,1.474-3.494a3.02,3.02,0,0,1,4.57,2.264c.295,3.346.049,6.693.1,10.039-.049,4.478.442,9.2-1.474,13.435-2.015,4.429-6.88,7.136-11.647,7.185-3.145.1-6.34.1-9.485,0a12.963,12.963,0,0,1-11.6-7.923A20.641,20.641,0,0,1,205,184.692c.049-4.331,0-8.661,0-12.992.1-1.329,0-2.953,1.179-3.839" transform="translate(-9.4 -89.362)"/>
</svg>
